HIERARCHY
ROOT Hips
{
	OFFSET -339.306915 540.749023 89.171944
	CHANNELS 6 Xposition Yposition Zposition Zrotation Yrotation Xrotation
	JOINT Spine
	{
		OFFSET 0.000000 2.080078 8.814247
		CHANNELS 6 Xposition Yposition Zposition Zrotation Yrotation Xrotation
		JOINT Spine1
		{
			OFFSET 0.000000 0.000000 8.844139
			CHANNELS 6 Xposition Yposition Zposition Zrotation Yrotation Xrotation
			JOINT Spine2
			{
				OFFSET 0.000000 0.000000 11.682266
				CHANNELS 6 Xposition Yposition Zposition Zrotation Yrotation Xrotation
				JOINT Spine3
				{
					OFFSET 0.000000 0.000000 11.746696
					CHANNELS 6 Xposition Yposition Zposition Zrotation Yrotation Xrotation
					JOINT Neck
					{
						OFFSET 0.000000 0.000000 17.658264
						CHANNELS 6 Xposition Yposition Zposition Zrotation Yrotation Xrotation
						JOINT Neck1
						{
							OFFSET 0.000000 0.000000 5.101517
							CHANNELS 6 Xposition Yposition Zposition Zrotation Yrotation Xrotation
							JOINT Head
							{
								OFFSET 0.000000 0.000000 5.101517
								CHANNELS 6 Xposition Yposition Zposition Zrotation Yrotation Xrotation
								JOINT HeadEnd
								{
									OFFSET 0.000000 0.000000 11.655090
									CHANNELS 6 Xposition Yposition Zposition Zrotation Yrotation Xrotation
									End Site
									{
										OFFSET 0.000000 0.000000 0.100006
									}
								}
							}
						}
					}
					JOINT RightShoulder
					{
						OFFSET -2.625397 0.000000 11.175217
						CHANNELS 6 Xposition Yposition Zposition Zrotation Yrotation Xrotation
						JOINT RightArm
						{
							OFFSET 0.000000 0.000000 10.434708
							CHANNELS 6 Xposition Yposition Zposition Zrotation Yrotation Xrotation
							JOINT RightForeArm
							{
								OFFSET 0.000000 0.000000 29.628418
								CHANNELS 6 Xposition Yposition Zposition Zrotation Yrotation Xrotation
								JOINT RightHand
								{
									OFFSET 0.000000 0.000000 22.857605
									CHANNELS 6 Xposition Yposition Zposition Zrotation Yrotation Xrotation
									JOINT RightHandThumb1
									{
										OFFSET -2.867310 -2.944275 3.959564
										CHANNELS 6 Xposition Yposition Zposition Zrotation Yrotation Xrotation
										JOINT RightHandThumb2
										{
											OFFSET 0.000000 0.000000 3.350403
											CHANNELS 6 Xposition Yposition Zposition Zrotation Yrotation Xrotation
											JOINT RightHandThumb3
											{
												OFFSET 0.000000 0.000000 3.756516
												CHANNELS 6 Xposition Yposition Zposition Zrotation Yrotation Xrotation
												JOINT RightHandThumb4
												{
													OFFSET 0.000000 0.000000 3.147339
													CHANNELS 6 Xposition Yposition Zposition Zrotation Yrotation Xrotation
													End Site
													{
														OFFSET 0.000000 0.000000 0.100006
													}
												}
											}
										}
									}
									JOINT RightHandIndex1
									{
										OFFSET -0.086761 -2.345276 10.030899
										CHANNELS 6 Xposition Yposition Zposition Zrotation Yrotation Xrotation
										JOINT RightHandIndex2
										{
											OFFSET 0.000000 0.000000 4.061096
											CHANNELS 6 Xposition Yposition Zposition Zrotation Yrotation Xrotation
											JOINT RightHandIndex3
											{
												OFFSET 0.000000 0.000000 3.248871
												CHANNELS 6 Xposition Yposition Zposition Zrotation Yrotation Xrotation
												JOINT RightHandIndex4
												{
													OFFSET 0.000000 0.000000 2.639709
													CHANNELS 6 Xposition Yposition Zposition Zrotation Yrotation Xrotation
													End Site
													{
														OFFSET 0.000000 0.000000 0.100006
													}
												}
											}
										}
									}
									JOINT RightHandMiddle1
									{
										OFFSET 0.104095 -0.006775 9.502945
										CHANNELS 6 Xposition Yposition Zposition Zrotation Yrotation Xrotation
										JOINT RightHandMiddle2
										{
											OFFSET 0.000000 0.000000 4.568726
											CHANNELS 6 Xposition Yposition Zposition Zrotation Yrotation Xrotation
											JOINT RightHandMiddle3
											{
												OFFSET 0.000000 0.000000 3.654984
												CHANNELS 6 Xposition Yposition Zposition Zrotation Yrotation Xrotation
												JOINT RightHandMiddle4
												{
													OFFSET 0.000000 0.000000 2.741241
													CHANNELS 6 Xposition Yposition Zposition Zrotation Yrotation Xrotation
													End Site
													{
														OFFSET 0.000000 0.000000 0.100006
													}
												}
											}
										}
									}
									JOINT RightHandRing1
									{
										OFFSET 0.086761 2.267456 8.921707
										CHANNELS 6 Xposition Yposition Zposition Zrotation Yrotation Xrotation
										JOINT RightHandRing2
										{
											OFFSET 0.000000 0.000000 4.061096
											CHANNELS 6 Xposition Yposition Zposition Zrotation Yrotation Xrotation
											JOINT RightHandRing3
											{
												OFFSET 0.000000 0.000000 3.654984
												CHANNELS 6 Xposition Yposition Zposition Zrotation Yrotation Xrotation
												JOINT RightHandRing4
												{
													OFFSET 0.000000 0.000000 2.741241
													CHANNELS 6 Xposition Yposition Zposition Zrotation Yrotation Xrotation
													End Site
													{
														OFFSET 0.000000 0.000000 0.100006
													}
												}
											}
										}
									}
									JOINT RightHandPinky1
									{
										OFFSET -0.173492 4.467224 7.976990
										CHANNELS 6 Xposition Yposition Zposition Zrotation Yrotation Xrotation
										JOINT RightHandPinky2
										{
											OFFSET 0.000000 0.000000 3.350403
											CHANNELS 6 Xposition Yposition Zposition Zrotation Yrotation Xrotation
											JOINT RightHandPinky3
											{
												OFFSET 0.000000 0.000000 2.842758
												CHANNELS 6 Xposition Yposition Zposition Zrotation Yrotation Xrotation
												JOINT RightHandPinky4
												{
													OFFSET 0.000000 0.000000 2.639709
													CHANNELS 6 Xposition Yposition Zposition Zrotation Yrotation Xrotation
													End Site
													{
														OFFSET 0.000000 0.000000 0.100006
													}
												}
											}
										}
									}
									JOINT RightForeArmEnd
									{
										OFFSET 0.000000 0.000000 0.000000
										CHANNELS 6 Xposition Yposition Zposition Zrotation Yrotation Xrotation
										End Site
										{
											OFFSET 0.000000 0.000000 0.100006
										}
									}
								}
								JOINT RightArmEnd
								{
									OFFSET 0.000000 0.000000 0.000000
									CHANNELS 6 Xposition Yposition Zposition Zrotation Yrotation Xrotation
									End Site
									{
										OFFSET 0.000000 0.000000 0.100006
									}
								}
							}
						}
					}
					JOINT LeftShoulder
					{
						OFFSET 2.625397 0.000000 11.175217
						CHANNELS 6 Xposition Yposition Zposition Zrotation Yrotation Xrotation
						JOINT LeftArm
						{
							OFFSET 0.000000 0.000000 10.813629
							CHANNELS 6 Xposition Yposition Zposition Zrotation Yrotation Xrotation
							JOINT LeftForeArm
							{
								OFFSET 0.000000 0.000000 28.724777
								CHANNELS 6 Xposition Yposition Zposition Zrotation Yrotation Xrotation
								JOINT LeftHand
								{
									OFFSET 0.644379 0.328857 25.716171
									CHANNELS 6 Xposition Yposition Zposition Zrotation Yrotation Xrotation
									JOINT LeftHandThumb1
									{
										OFFSET 2.867310 -2.944275 3.959564
										CHANNELS 6 Xposition Yposition Zposition Zrotation Yrotation Xrotation
										JOINT LeftHandThumb2
										{
											OFFSET 0.000000 0.000000 3.350403
											CHANNELS 6 Xposition Yposition Zposition Zrotation Yrotation Xrotation
											JOINT LeftHandThumb3
											{
												OFFSET 0.000000 0.000000 3.756516
												CHANNELS 6 Xposition Yposition Zposition Zrotation Yrotation Xrotation
												JOINT LeftHandThumb4
												{
													OFFSET 0.000000 0.000000 3.100006
													CHANNELS 6 Xposition Yposition Zposition Zrotation Yrotation Xrotation
													End Site
													{
														OFFSET 0.000000 0.000000 0.100006
													}
												}
											}
										}
									}
									JOINT LeftHandIndex1
									{
										OFFSET 0.086761 -2.345276 10.030899
										CHANNELS 6 Xposition Yposition Zposition Zrotation Yrotation Xrotation
										JOINT LeftHandIndex2
										{
											OFFSET 0.000000 0.000000 4.061096
											CHANNELS 6 Xposition Yposition Zposition Zrotation Yrotation Xrotation
											JOINT LeftHandIndex3
											{
												OFFSET 0.000000 0.000000 3.248871
												CHANNELS 6 Xposition Yposition Zposition Zrotation Yrotation Xrotation
												JOINT LeftHandIndex4
												{
													OFFSET 0.000000 0.000000 2.639709
													CHANNELS 6 Xposition Yposition Zposition Zrotation Yrotation Xrotation
													End Site
													{
														OFFSET 0.000000 0.000000 0.100006
													}
												}
											}
										}
									}
									JOINT LeftHandMiddle1
									{
										OFFSET -0.104095 -0.006775 9.502945
										CHANNELS 6 Xposition Yposition Zposition Zrotation Yrotation Xrotation
										JOINT LeftHandMiddle2
										{
											OFFSET 0.000000 0.000000 4.568726
											CHANNELS 6 Xposition Yposition Zposition Zrotation Yrotation Xrotation
											JOINT LeftHandMiddle3
											{
												OFFSET 0.000000 0.000000 3.654984
												CHANNELS 6 Xposition Yposition Zposition Zrotation Yrotation Xrotation
												JOINT LeftHandMiddle4
												{
													OFFSET 0.000000 0.000000 2.741241
													CHANNELS 6 Xposition Yposition Zposition Zrotation Yrotation Xrotation
													End Site
													{
														OFFSET 0.000000 0.000000 0.100006
													}
												}
											}
										}
									}
									JOINT LeftHandRing1
									{
										OFFSET -0.086761 2.267456 8.921707
										CHANNELS 6 Xposition Yposition Zposition Zrotation Yrotation Xrotation
										JOINT LeftHandRing2
										{
											OFFSET 0.000000 0.000000 4.061096
											CHANNELS 6 Xposition Yposition Zposition Zrotation Yrotation Xrotation
											JOINT LeftHandRing3
											{
												OFFSET 0.000000 0.000000 3.654984
												CHANNELS 6 Xposition Yposition Zposition Zrotation Yrotation Xrotation
												JOINT LeftHandRing4
												{
													OFFSET 0.000000 0.000000 2.741241
													CHANNELS 6 Xposition Yposition Zposition Zrotation Yrotation Xrotation
													End Site
													{
														OFFSET 0.000000 0.000000 0.100006
													}
												}
											}
										}
									}
									JOINT LeftHandPinky1
									{
										OFFSET 0.173492 4.467224 7.976990
										CHANNELS 6 Xposition Yposition Zposition Zrotation Yrotation Xrotation
										JOINT LeftHandPinky2
										{
											OFFSET 0.000000 0.000000 3.350403
											CHANNELS 6 Xposition Yposition Zposition Zrotation Yrotation Xrotation
											JOINT LeftHandPinky3
											{
												OFFSET 0.000000 0.000000 2.842758
												CHANNELS 6 Xposition Yposition Zposition Zrotation Yrotation Xrotation
												JOINT LeftHandPinky4
												{
													OFFSET 0.000000 0.000000 2.639709
													CHANNELS 6 Xposition Yposition Zposition Zrotation Yrotation Xrotation
													End Site
													{
														OFFSET 0.000000 0.000000 0.100006
													}
												}
											}
										}
									}
									JOINT LeftForeArmEnd
									{
										OFFSET 0.000000 0.000000 0.000000
										CHANNELS 6 Xposition Yposition Zposition Zrotation Yrotation Xrotation
										End Site
										{
											OFFSET 0.000000 0.000000 0.100006
										}
									}
								}
								JOINT LeftArmEnd
								{
									OFFSET 0.000000 0.000000 0.000000
									CHANNELS 6 Xposition Yposition Zposition Zrotation Yrotation Xrotation
									End Site
									{
										OFFSET 0.000000 0.000000 0.100006
									}
								}
							}
						}
					}
				}
			}
		}
	}
	JOINT RightUpLeg
	{
		OFFSET -11.289948 0.000000 0.000000
		CHANNELS 6 Xposition Yposition Zposition Zrotation Yrotation Xrotation
		JOINT RightLeg
		{
			OFFSET 0.000000 0.000000 -38.200329
			CHANNELS 6 Xposition Yposition Zposition Zrotation Yrotation Xrotation
			JOINT RightFoot
			{
				OFFSET 0.000000 0.000000 -39.900856
				CHANNELS 6 Xposition Yposition Zposition Zrotation Yrotation Xrotation
				JOINT RightToeBase
				{
					OFFSET 0.000000 -15.261658 0.000001
					CHANNELS 6 Xposition Yposition Zposition Zrotation Yrotation Xrotation
					JOINT RightToeBaseEnd
					{
						OFFSET 0.000000 -7.370728 0.000001
						CHANNELS 6 Xposition Yposition Zposition Zrotation Yrotation Xrotation
						End Site
						{
							OFFSET 0.000000 0.000000 0.100000
						}
					}
				}
				JOINT RightLegEnd
				{
					OFFSET 0.000000 0.000000 0.000000
					CHANNELS 6 Xposition Yposition Zposition Zrotation Yrotation Xrotation
					End Site
					{
						OFFSET 0.000000 0.000000 0.100000
					}
				}
			}
			JOINT RightUpLegEnd
			{
				OFFSET 0.000000 0.000000 0.000000
				CHANNELS 6 Xposition Yposition Zposition Zrotation Yrotation Xrotation
				End Site
				{
					OFFSET 0.000000 0.000000 0.099998
				}
			}
		}
	}
	JOINT LeftUpLeg
	{
		OFFSET 11.315674 0.000000 0.000000
		CHANNELS 6 Xposition Yposition Zposition Zrotation Yrotation Xrotation
		JOINT LeftLeg
		{
			OFFSET 0.000000 0.000000 -38.200329
			CHANNELS 6 Xposition Yposition Zposition Zrotation Yrotation Xrotation
			JOINT LeftFoot
			{
				OFFSET 0.000000 0.000000 -39.900856
				CHANNELS 6 Xposition Yposition Zposition Zrotation Yrotation Xrotation
				JOINT LeftToeBase
				{
					OFFSET 0.000000 -15.261658 0.000001
					CHANNELS 6 Xposition Yposition Zposition Zrotation Yrotation Xrotation
					JOINT LeftToeBaseEnd
					{
						OFFSET 0.000000 -7.539978 0.000001
						CHANNELS 6 Xposition Yposition Zposition Zrotation Yrotation Xrotation
						End Site
						{
							OFFSET 0.000000 0.000000 0.100000
						}
					}
				}
				JOINT LeftLegEnd
				{
					OFFSET 0.000000 0.000000 0.000000
					CHANNELS 6 Xposition Yposition Zposition Zrotation Yrotation Xrotation
					End Site
					{
						OFFSET 0.000000 0.000000 0.100000
					}
				}
			}
			JOINT LeftUpLegEnd
			{
				OFFSET 0.000000 0.000000 0.000000
				CHANNELS 6 Xposition Yposition Zposition Zrotation Yrotation Xrotation
				End Site
				{
					OFFSET 0.000000 0.000000 0.099998
				}
			}
		}
	}
}
MOTION
Frames: 2
Frame Time: 0.016667
-21.059357 -37.597473 88.020233 -12.295587 -1.854581 -9.375732 0.000004 2.080099 8.814259 0.135814 1.060737 4.608024 -0.000009 0.000007 8.844150 -0.011615 -0.435058 1.857018 -0.000006 0.000026 11.682275 2.523040 -0.101693 5.703599 0.000013 0.000014 11.746698 0.604496 -0.513262 7.043058 0.000004 -0.000016 17.658300 2.260038 3.904679 7.383838 0.000002 0.000016 5.101501 -0.649960 1.653466 -3.024849 -0.000011 -0.000001 5.101540 0.336647 1.470948 -16.108605 0.000002 0.000000 11.655075 0.000000 0.000000 -0.000000 -2.625397 -0.000019 11.175220 11.448578 -74.527029 0.408893 -0.000004 0.000019 10.434708 -66.029563 -38.310668 80.913727 0.000000 -0.000015 29.628447 3.947358 0.032420 24.306896 -0.000015 -0.000103 22.857559 -5.854140 16.421038 -6.226825 -2.867281 -2.944260 3.959564 33.448123 -29.128260 35.046394 -0.000008 -0.000015 3.350395 -38.530999 8.984259 -64.663689 0.000031 -0.000023 3.756508 -25.945198 11.070383 -44.369196 0.000031 0.000013 3.147340 -0.000002 0.000001 -0.000002 -0.086746 -2.345283 10.030930 6.316847 -102.711463 -18.504477 -0.000004 -0.000015 4.061089 17.152487 -71.247479 -24.453797 0.000000 -0.000025 3.248886 17.652482 -71.247472 -24.453816 0.000001 -0.000001 2.639707 0.000000 -0.000002 0.000001 0.104122 -0.006762 9.502964 28.927169 -103.128705 -34.127221 -0.000021 0.000011 4.568716 5.739584 -70.976648 -8.742990 -0.000008 0.000009 3.655033 6.239569 -70.976648 -8.742979 -0.000011 -0.000012 2.741254 0.000001 0.000001 -0.000001 0.086792 2.267462 8.921722 39.908836 -112.228163 -36.761273 0.000015 -0.000024 4.061127 -8.849093 -74.668004 12.890148 -0.000002 -0.000010 3.654984 -9.849149 -74.667990 12.890229 -0.000006 0.000010 2.741247 -0.000002 -0.000002 -0.000000 -0.173447 4.467232 7.976982 55.690825 -117.377306 -42.804543 -0.000031 -0.000034 3.350422 -25.281039 -72.061528 36.901046 -0.000015 0.000008 2.842781 -27.280947 -72.061535 36.900951 -0.000003 0.000005 2.639710 -0.000001 0.000000 -0.000000 0.000011 0.000008 -0.000013 -0.000003 0.000002 0.000001 -0.000001 -0.000011 -0.000003 0.000002 -0.000001 0.000000 2.625397 -0.000013 11.175248 -13.235091 76.104843 -0.106392 0.000042 0.000008 10.813618 70.588707 56.977646 66.377090 -0.000012 -0.000069 28.724762 -14.071068 2.107165 28.018167 0.644351 0.328850 25.716171 -5.964450 0.030761 -7.579499 2.867329 -2.944260 3.959595 -32.129637 25.046102 40.507417 -0.000015 0.000076 3.350399 29.959348 -10.893252 -50.772092 -0.000008 -0.000015 3.756531 19.848325 -10.492489 -34.618585 0.000013 0.000006 3.100007 0.000000 -0.000001 -0.000001 0.086731 -2.345259 10.030903 62.933076 69.380017 54.805486 0.000019 0.000002 4.061100 5.477098 54.815953 11.498797 0.000011 0.000008 3.248856 5.977146 54.815970 11.498833 0.000013 -0.000009 2.639736 0.000002 -0.000000 -0.000000 -0.104088 -0.006772 9.502972 43.483877 70.629969 41.035415 -0.000023 0.000029 4.568731 1.487887 52.990906 3.986673 0.000008 0.000011 3.654982 1.987898 52.990889 3.986675 0.000012 -0.000011 2.741268 0.000001 -0.000002 -0.000002 -0.086761 2.267454 8.921684 21.868591 75.798960 26.552909 -0.000032 -0.000086 4.061106 -1.383740 53.449157 -4.732472 0.000009 -0.000019 3.654980 -2.383741 53.449137 -4.732464 0.000005 -0.000007 2.741254 0.000001 -0.000002 -0.000001 0.173492 4.467232 7.976972 -12.482505 75.239315 -0.254220 0.000000 0.000026 3.350410 -4.233408 49.905634 -13.348905 0.000000 0.000013 2.842766 -6.233410 49.905686 -13.348905 0.000009 0.000013 2.639714 -0.000001 -0.000000 0.000001 0.000008 -0.000004 0.000024 0.000001 0.000001 0.000000 -0.000004 0.000005 0.000004 0.000000 -0.000001 0.000002 -11.289959 0.000048 0.000025 8.483107 -2.669145 -0.294654 0.000015 0.000040 -38.200333 0.257692 -0.119530 24.805210 -0.000002 0.000081 -39.900852 -6.969655 6.427959 12.256984 -0.000014 -15.261649 -0.000003 -0.311310 0.481423 -20.722065 0.000008 -7.370667 0.000002 0.000000 -0.000000 -0.000000 0.000000 0.000066 -0.000001 -0.000001 -0.000000 0.000001 -0.000000 0.000000 -0.000008 -0.000000 -0.000000 0.000001 11.315644 -0.000005 0.000028 6.668561 0.375717 5.197400 -0.000004 0.000109 -38.200325 0.632416 -0.178278 16.393313 0.000023 -0.000008 -39.900864 8.630201 0.569063 15.147123 0.000010 -15.261623 0.000008 -0.796775 -0.988599 -19.733769 -0.000001 -7.539916 0.000001 -0.000000 -0.000000 -0.000000 0.000002 -0.000059 0.000002 -0.000000 0.000000 0.000000 -0.000028 0.000059 -0.000001 0.000000 -0.000000 0.000001 
-21.056702 -37.589233 87.959534 -12.337548 -1.903787 -9.794591 0.000015 2.080076 8.814253 0.137862 1.132405 5.016931 0.000015 0.000027 8.844145 -0.009325 -0.419543 2.013182 0.000006 -0.000028 11.682282 2.452180 -0.133849 5.840254 -0.000002 0.000011 11.746681 0.580631 -0.562089 6.864981 -0.000003 -0.000010 17.658304 2.273720 3.977080 7.096738 0.000003 -0.000008 5.101515 -0.584380 1.609544 -3.039533 -0.000005 0.000002 5.101539 0.341798 1.466909 -16.268150 -0.000000 -0.000002 11.655091 0.000000 0.000000 -0.000000 -2.625404 -0.000015 11.175261 11.145879 -76.428075 0.408605 -0.000015 -0.000004 10.434713 -64.469787 -38.551961 78.492268 0.000009 -0.000011 29.628471 5.057438 0.045912 24.878594 -0.000015 -0.000092 22.857594 -6.018066 14.723922 -5.619881 -2.867295 -2.944275 3.959579 33.290359 -28.737546 35.568476 0.000000 0.000015 3.350384 -37.740159 9.253281 -63.358795 0.000008 0.000031 3.756531 -25.360824 11.059433 -43.437845 0.000009 -0.000005 3.147339 0.000001 -0.000001 0.000001 -0.086769 -2.345298 10.030895 8.399069 -100.164444 -20.193731 0.000008 -0.000010 4.061066 15.020443 -69.589860 -22.191141 -0.000023 0.000031 3.248871 15.520416 -69.589840 -22.191146 0.000005 -0.000001 2.639695 -0.000000 -0.000000 -0.000001 0.104092 -0.006786 9.502943 35.770070 -100.972312 -40.728947 -0.000010 -0.000026 4.568720 4.970946 -69.189345 -7.925566 0.000010 0.000026 3.654963 5.470383 -69.189420 -7.925112 0.000001 0.000004 2.741244 -0.000000 0.000000 0.000000 0.086765 2.267466 8.921684 44.764015 -110.344827 -41.682899 0.000019 -0.000012 4.061098 -7.476895 -72.891355 11.461256 -0.000006 -0.000019 3.654974 -8.476957 -72.891376 11.461303 -0.000005 -0.000005 2.741249 0.000001 0.000001 -0.000000 -0.173500 4.467205 7.976978 60.819795 -115.940535 -48.123952 -0.000008 -0.000034 3.350433 -21.828327 -70.482395 33.255781 -0.000023 -0.000008 2.842770 -23.828297 -70.482395 33.255747 -0.000003 0.000015 2.639716 -0.000003 -0.000003 -0.000003 0.000014 0.000008 -0.000007 -0.000001 0.000003 -0.000003 -0.000014 0.000003 0.000001 -0.000001 0.000002 0.000001 2.625435 -0.000019 11.175242 -12.959744 77.764770 -0.119271 0.000000 -0.000005 10.813671 68.421113 56.178596 64.164675 0.000011 -0.000031 28.724777 -14.836486 2.179669 28.632920 0.644352 0.328878 25.716145 -6.101524 -0.007985 -7.117179 2.867323 -2.944260 3.959549 -32.085165 24.853528 40.766937 -0.000015 0.000015 3.350410 29.541268 -10.937967 -50.106240 0.000000 0.000000 3.756527 19.561679 -10.439681 -34.156936 0.000006 -0.000015 3.100018 0.000003 -0.000000 -0.000000 0.086723 -2.345276 10.030933 59.044014 68.599879 51.412125 0.000019 0.000000 4.061123 5.118154 53.765337 11.056761 0.000002 -0.000008 3.248875 5.618173 53.765385 11.056766 0.000035 0.000011 2.639727 -0.000002 -0.000001 -0.000002 -0.104092 -0.006773 9.502995 40.474233 69.522494 38.233476 -0.000004 -0.000010 4.568739 1.370105 51.941584 3.838149 0.000030 -0.000025 3.654974 1.870094 51.941577 3.838137 0.000013 -0.000006 2.741267 0.000000 -0.000001 -0.000002 -0.086754 2.267439 8.921734 19.447690 74.290130 23.904241 0.000004 -0.000018 4.061090 -1.233587 52.332524 -4.544197 0.000037 -0.000014 3.654997 -2.233590 52.332506 -4.544200 -0.000014 0.000005 2.741248 -0.000000 -0.000000 0.000001 0.173462 4.467196 7.977008 -11.566901 73.433208 -0.000444 -0.000004 0.000010 3.350410 -3.842449 48.811616 -12.833689 0.000011 -0.000011 2.842758 -5.842239 48.809628 -12.833237 0.000010 -0.000003 2.639720 0.000000 -0.000002 -0.000001 -0.000005 0.000017 0.000032 -0.000003 0.000000 0.000000 -0.000012 0.000022 -0.000009 -0.000003 -0.000002 0.000002 -11.289949 -0.000012 0.000004 8.592134 -2.710510 -0.077352 0.000013 0.000020 -38.200275 0.263858 -0.123266 25.186164 0.000011 0.000021 -39.900848 -7.101979 6.406382 12.032278 0.000025 -15.261662 0.000007 -0.309864 0.481358 -20.725012 0.000003 -7.370667 0.000000 0.000000 -0.000000 -0.000000 -0.000000 0.000070 0.000000 -0.000001 0.000000 0.000003 -0.000002 -0.000000 0.000000 0.000000 -0.000001 0.000001 11.315659 0.000021 0.000001 6.689717 0.376909 5.495327 -0.000003 0.000038 -38.200306 0.624748 -0.178169 16.659709 -0.000006 -0.000000 -39.900852 8.668072 0.599189 14.910510 -0.000009 -15.261631 -0.000001 -0.804441 -0.981362 -19.672130 -0.000002 -7.539977 -0.000000 -0.000000 -0.000000 0.000000 -0.000003 -0.000060 0.000001 -0.000000 -0.000000 0.000001 -0.000002 -0.000000 -0.000007 0.000000 0.000000 0.000000 
